<?xml version="1.0" encoding="utf-8"?>
<!-- Generator: Adobe Illustrator 28.1.0, SVG Export Plug-In . SVG Version: 6.00 Build 0)  -->
<svg version="1.1" id="Capa_1" xmlns="http://www.w3.org/2000/svg" xmlns:xlink="http://www.w3.org/1999/xlink" x="0px" y="0px"
	 viewBox="0 0 2989 1081.9" style="enable-background:new 0 0 2989 1081.9;" xml:space="preserve">
<style type="text/css">
	.st0{display:none;}
	.st1{display:inline;fill:#FFFFFF;}
	.st2{font-family:'Roboto-Bold';}
	.st3{font-size:181.1736px;}
	.st4{display:none;fill:#004EBF;}
	.st5{display:none;fill:#FFFFFF;enable-background:new    ;}
	.st6{font-size:301.3485px;}
	.st7{fill:#155DFF;}
	.st8{fill:none;}
	.st9{fill:#FFFFFF;}
	.st10{fill:#004EBF;}
</style>
<g class="st0">
	<text transform="matrix(0.9516 0 0 1 1137.5709 383.9967)" class="st1 st2 st3">SIGUENOS</text>
	<path class="st1" d="M1270.5,232.2l5.5,6.6c0,0,28.1-20.5,25.7-22.1c-2.3-1.6-15.5-13.9-15.5-13.9L1270.5,232.2z"/>
</g>
<path class="st4" d="M2240.5,187.6H668.7c-99.5,0-180.1,60-180.1,134l0,0c0,74,80.7,134,180.1,134h1571.8c99.5,0,180.1-60,180.1-134
	l0,0C2420.7,247.5,2340,187.6,2240.5,187.6z"/>
<text transform="matrix(1.0208 0 0 1 1059.6989 787.235)" class="st5 st2 st6">fprolancho</text>
<path class="st7" d="M2740.2,891.6h-2017c-127.7,0-231.1-89.8-231.1-200.6l0,0c0-110.8,103.5-200.6,231.1-200.6h2017.1
	c127.7,0,231.1,89.8,231.1,200.6l0,0C2971.4,801.8,2868,891.6,2740.2,891.6z"/>
<g>
	<path class="st8" d="M873.6,202.3c-46-46-99.1-80.5-155.7-103.7c-55.1-22.3-115.2-34.6-178.4-34.6
		c-262.6,0-475.4,212.8-475.4,475.4c0,208.8,135,386.1,322.3,449.8c165.4,55.5,355.4,17.3,487.2-114.5
		C1059.3,688.9,1059.3,388,873.6,202.3z M605.8,959.1v-3.1c-22,3.7-44.8,5.5-67.9,5.5c-21.9,0-43.5-1.6-64.6-4.9v2.3
		C270.2,927,114.4,751.1,114.4,538.9c0-234.8,190.4-425.2,425.2-425.2s425.2,190.4,425.2,425.3C964.7,751.3,809.1,927.2,605.8,959.1
		z"/>
	<path class="st7" d="M539.5,113.8c-234.8,0-425.2,190.4-425.2,425.2c0,212.2,155.9,388,358.9,419.9v-2.3v-294H365.7V540.1h107.6
		v-93.4c0-106.4,63.3-165,160-165c46.5,0,95,8.3,95,8.3v104.3h-53.4c-52.7,0-69.1,32.7-69.1,66.2v79.5h117.6l-18.8,122.6h-98.8
		v293.3v3.1c203.3-31.9,358.9-207.7,358.9-420C964.7,304.1,774.3,113.8,539.5,113.8z"/>
	<path class="st9" d="M704.6,662.7l18.8-122.6H605.8v-79.5c0-33.5,16.4-66.2,69.1-66.2h53.4V290c0,0-48.5-8.3-95-8.3
		c-96.8,0-160,58.6-160,165v93.4H365.7v122.4h107.6v294c21.1,3.4,42.6,4.9,64.6,4.9c23.1,0,45.9-1.8,67.9-5.5V662.7H704.6z"/>
	<path class="st7" d="M739.8,57.8c-0.6-0.2-1.2-0.5-1.7-0.7c-0.6-0.2-1.2-0.5-1.7-0.7C547.5-21.5,322.2,16.3,168.6,169.8
		c-184.1,184-201.5,471.6-53,675.5l1-1c32,44.2,70.6,83.1,114.5,115.4l-0.6,0.6c42.9,31.3,89.6,55.2,138.1,71.8
		c28.9,10.1,58.8,17.6,89.7,22.4v-0.5c53.9,8.3,108.8,8,162.6-0.6v1.3c249.3-39.1,440.1-254.8,440.1-515.1
		C1061.1,322.5,928.5,136.4,739.8,57.8z M873.6,874.6c-131.8,131.8-321.8,170-487.2,114.5c-187.2-63.7-322.3-241-322.3-449.8
		c0-262.6,212.8-475.4,475.4-475.4c63.1,0,123.3,12.3,178.4,34.6c56.7,23.2,109.7,57.7,155.7,103.7
		C1059.3,388,1059.3,688.9,873.6,874.6z"/>
</g>
<g>
	<path class="st10" d="M858.2,187.6H779c90.2,61.6,155.4,157,177.5,268h49.2c-16.3-92.8-60.3-181.6-132-253.3
		C868.6,197.3,863.4,192.3,858.2,187.6z"/>
	<path class="st10" d="M2240.5,187.6H924.4c67,73.2,113.4,165.6,129.9,268h1186.1c99.5,0,180.1-60,180.1-134
		C2420.7,247.5,2340,187.6,2240.5,187.6z"/>
</g>
<g>
	<path class="st9" d="M1325.6,339.4c-7.6-7.1-18.6-12.8-33.1-17.2c-9.5-3.4-16.1-6.7-20-9.8c-3.9-3.1-5.8-7-5.8-11.8
		c0-5.2,1.8-9.6,5.3-12.9c3.6-3.4,8.6-5.1,15.1-5.1c7.2,0,12.7,1.9,16.7,5.7c4,3.8,6,9.2,6,16.3h25.6l0.2-0.6
		c0.3-12.8-4-23.2-12.9-31.1c-8.9-7.9-20.6-11.9-35.2-11.9c-13.7,0-25,3.7-33.9,11c-8.9,7.4-13.3,16.8-13.3,28.4
		c0,11.5,3.9,20.6,11.8,27.3c7.9,6.7,19.4,12.5,34.6,17.4c8.9,2.9,15,6,18.6,9.3s5.3,7.7,5.3,13.1c0,5.3-1.9,9.6-5.6,12.7
		c-3.7,3.2-9.1,4.8-16.1,4.8c-7.8,0-14-2-18.6-5.9c-4.6-3.9-6.9-10.1-6.9-18.5h-25.6l-0.2,0.6c-0.3,15,4.6,26.3,14.8,33.9
		c10.1,7.6,22.3,11.4,36.5,11.4c14.5,0,26.1-3.5,34.9-10.5c8.8-7,13.2-16.5,13.2-28.7C1337,355.9,1333.2,346.5,1325.6,339.4z"/>
	<rect x="1358.2" y="263.1" class="st9" width="26.4" height="141.4"/>
	<path class="st9" d="M1459.7,350.3h25.3v27.4c-2,2.1-4.8,3.8-8.4,5.1c-3.6,1.4-8.6,2-14.9,2c-8.5,0-15.3-3.4-20.3-10.1
		c-5.1-6.7-7.6-15.4-7.6-26.1v-29.7c0-10.6,2.5-19.2,7.4-25.9c4.9-6.7,11.4-10.1,19.5-10.1c7.7,0,13.6,2.1,17.6,6.3
		c4,4.2,6.1,10,6.1,17.5h24.8l0.2-0.6c0.3-13.7-3.8-24.6-12.4-32.8c-8.6-8.2-20.9-12.3-37-12.3c-15.4,0-28,5.4-37.9,16.2
		c-9.8,10.8-14.7,24.7-14.7,41.8v29.5c0,17.2,5.1,31.1,15.2,41.9c10.1,10.8,23.1,16.1,39,16.1c12.8,0,23.3-2.1,31.4-6.4
		c8.1-4.2,14.2-9.2,18.3-15v-54.6h-51.8V350.3z"/>
	<path class="st9" d="M1611.7,355.7c0,9.5-2.4,16.7-7.1,21.7c-4.8,5-11.2,7.5-19.3,7.5c-8,0-14.4-2.5-19.1-7.5c-4.7-5-7-12.2-7-21.7
		v-92.6h-26.5v92.6c0,15.9,4.9,28.4,14.6,37.4c9.7,9,22.4,13.5,38,13.5c15.7,0,28.4-4.5,38.2-13.5c9.8-9,14.7-21.5,14.7-37.4v-92.6
		h-26.5V355.7z"/>
	<polygon class="st9" points="1687.4,342.4 1736.2,342.4 1736.2,320.5 1687.4,320.5 1687.4,285 1745.2,285 1745.2,263.1 1661,263.1 
		1661,404.6 1745.4,404.6 1745.4,382.8 1687.4,382.8 	"/>
	<polygon class="st9" points="1843.9,358.3 1843.3,358.4 1790.3,263.1 1763.9,263.1 1763.9,404.6 1790.3,404.6 1790.3,309.3 
		1790.8,309.2 1843.9,404.6 1870.3,404.6 1870.3,263.1 1843.9,263.1 	"/>
	<path class="st9" d="M1945.7,261.1c-16.2,0-29.3,5.7-39.4,17c-10.1,11.4-15.1,25.7-15.1,43v25.5c0,17.4,5.1,31.7,15.2,43
		c10.1,11.3,23.3,17,39.6,17c16.3,0,29.6-5.6,39.8-17c10.2-11.3,15.3-25.7,15.3-43.1v-25.5c0-17.3-5.1-31.6-15.4-43
		C1975.3,266.8,1962,261.1,1945.7,261.1z M1974.6,346.6c0,11.2-2.5,20.3-7.6,27.4c-5.1,7.1-12.1,10.6-21.1,10.6c-9,0-16-3.5-21-10.6
		c-5-7.1-7.5-16.2-7.5-27.4v-25.6c0-11,2.5-20,7.5-27.1c5-7.1,11.9-10.6,20.8-10.6c9,0,16.1,3.5,21.2,10.6
		c5.1,7.1,7.7,16.1,7.7,27.1V346.6z"/>
	<path class="st9" d="M2105.3,339.4c-7.6-7.1-18.6-12.8-33.1-17.2c-9.5-3.4-16.1-6.7-20-9.8c-3.9-3.1-5.8-7-5.8-11.8
		c0-5.2,1.8-9.6,5.3-12.9c3.6-3.4,8.6-5.1,15.1-5.1c7.2,0,12.7,1.9,16.7,5.7c4,3.8,6,9.2,6,16.3h25.6l0.2-0.6
		c0.3-12.8-4-23.2-12.9-31.1c-8.9-7.9-20.6-11.9-35.2-11.9c-13.7,0-25,3.7-33.9,11c-8.9,7.4-13.3,16.8-13.3,28.4
		c0,11.5,3.9,20.6,11.8,27.3c7.9,6.7,19.4,12.5,34.6,17.4c8.9,2.9,15,6,18.6,9.3c3.5,3.3,5.3,7.7,5.3,13.1c0,5.3-1.9,9.6-5.6,12.7
		c-3.7,3.2-9.1,4.8-16.1,4.8c-7.8,0-14-2-18.6-5.9c-4.6-3.9-6.9-10.1-6.9-18.5h-25.6l-0.2,0.6c-0.3,15,4.6,26.3,14.8,33.9
		c10.1,7.6,22.3,11.4,36.5,11.4c14.5,0,26.1-3.5,34.9-10.5c8.8-7,13.2-16.5,13.2-28.7C2116.7,355.9,2112.9,346.5,2105.3,339.4z"/>
	<path class="st9" d="M1389.4,205.6l-16.8,32.3l5.9,7.2c0,0,30.2-22.5,27.6-24.3C1403.5,219.1,1389.4,205.6,1389.4,205.6z"/>
</g>
<g>
	<path class="st9" d="M1242.2,549.3c-21.3,0-37.8,4.9-49.5,14.7c-11.8,9.8-17.6,23.8-17.6,42v18h-27v30.7h27V786h49V654.7h34.9V624
		H1224v-18c0-7.3,2-12.9,6.1-16.8c4.1-3.9,10.1-5.8,18.1-5.8c3.4,0,6.3,0.2,8.8,0.5c2.5,0.3,5.1,0.6,7.8,1l4.2-32.5
		c-5.2-1-9.9-1.8-14.2-2.3C1250.5,549.6,1246.3,549.3,1242.2,549.3z"/>
	<path class="st9" d="M1375,621c-10.1,0-18.9,1.9-26.5,5.8c-7.6,3.8-14,9.3-19.4,16.4l-2.9-19.2h-44.2v224.2h48.9v-77.7
		c5.3,6.1,11.6,10.7,19,13.8c7.4,3.1,15.8,4.7,25.4,4.7c22.3,0,39.6-7.3,52.1-21.9c12.4-14.6,18.6-33.8,18.6-57.8v-3.1
		c0-25.5-6.2-46.2-18.6-61.8C1415,628.9,1397.5,621,1375,621z M1397,709.5c0,14.2-2.8,25.4-8.3,33.7c-5.5,8.3-14.2,12.4-26.1,12.4
		c-7.6,0-14-1.2-19.2-3.6c-5.2-2.4-9.3-5.9-12.3-10.5v-71c3-5,7.1-8.8,12.3-11.5s11.5-4,18.9-4c11.8,0,20.5,4.7,26.2,14.2
		c5.7,9.5,8.6,21.9,8.6,37.1V709.5z"/>
	<path class="st9" d="M1564,621c-8.8,0-16.7,2.4-23.4,7.1c-6.8,4.7-12.3,11.4-16.5,19.8l-2.2-24h-45.5v162h48.9V676.6
		c2.5-4.9,6-8.7,10.7-11.4c4.7-2.7,10.7-4,18-4l18,0.4l5.2-38.8c-2.1-0.5-4.2-0.9-6.3-1.3C1568.7,621.2,1566.4,621,1564,621z"/>
	<path class="st9" d="M1672,621c-26.8,0-47.7,7.7-62.8,23.1c-15.1,15.4-22.7,35.2-22.7,59.4v3.1c0,24.4,7.6,44.2,22.8,59.5
		c15.2,15.3,36.2,23,63.1,23c26.8,0,47.7-7.7,62.9-23c15.2-15.3,22.8-35.2,22.8-59.5v-3.1c0-24.3-7.6-44.1-22.8-59.4
		C1719.9,628.7,1698.8,621,1672,621z M1708.9,706.7c0,14.7-2.9,26.5-8.8,35.5c-5.9,9-15.1,13.5-27.8,13.5c-13,0-22.4-4.5-28.2-13.4
		c-5.8-8.9-8.7-20.8-8.7-35.6v-3.1c0-14.3,2.9-26,8.8-35.1c5.9-9.1,15.1-13.7,27.8-13.7c12.8,0,22.1,4.5,28,13.6
		c5.9,9.1,8.9,20.8,8.9,35.2V706.7z"/>
	<rect x="1790.7" y="552.5" class="st9" width="49" height="233.5"/>
	<path class="st9" d="M2028,744.7v-66.9c0-18.3-6.7-32.3-20.2-42.1c-13.5-9.8-31.2-14.7-53-14.7c-22.8,0-41.3,5-55.5,14.9
		c-14.2,9.9-20.9,21.7-20.1,35.4l0.3,0.9h47.2c0-6,2.2-10.7,6.5-14.1c4.3-3.4,10.4-5.2,18.4-5.2c9.1,0,15.9,2.1,20.5,6.4
		c4.6,4.3,6.9,10.3,6.9,18.1v12.9h-27.5c-26.3,0-46.3,4.4-60,13.1c-13.7,8.7-20.6,21-20.6,36.9c0,15.1,5.1,27,15.5,35.7
		c10.3,8.7,25,13.1,44,13.1c11.4,0,21.3-2.6,29.6-7.8c8.3-5.2,14.9-11.7,20-19.6c0.6,4.3,1.5,8.5,2.8,12.6c1.3,4.1,2.8,8,4.6,11.7
		h48.9c-2.8-6.6-4.8-13.2-6.1-19.9C2028.7,759.4,2028,752.3,2028,744.7z M1979,737.9c-2.5,5-7.1,9.4-13.8,13.2
		c-6.7,3.8-14.3,5.7-22.8,5.7c-7.1,0-12.6-1.6-16.5-4.9c-4-3.2-6-7.6-6-13.1c0-6.7,2.7-12.3,8-16.9c5.3-4.6,13.2-6.9,23.6-6.9h27.5
		V737.9z"/>
	<path class="st9" d="M2163.9,621c-11,0-20.9,2.3-29.7,6.9c-8.8,4.6-16.3,11-22.3,19.3l-2.2-23.2h-45.7v162h49V668.8
		c3.6-4.3,8.1-7.7,13.7-10.1c5.5-2.4,12-3.7,19.2-3.7c9.1,0,15.9,2.4,20.4,7.3c4.5,4.8,6.8,13,6.8,24.6V786h49.2v-99.2
		c0-22.8-5.2-39.4-15.5-49.9C2196.6,626.3,2182.2,621,2163.9,621z"/>
	<path class="st9" d="M2388.1,638.1c-13.5-11.4-31.4-17.1-53.6-17.1c-26.8,0-47.4,7.7-62.1,23.1c-14.6,15.4-21.9,35-21.9,58.8v4.5
		c0,23.9,7.3,43.4,22,58.8c14.7,15.3,35.4,23,62.3,23c20.8,0,38.3-5.5,52.4-16.5c14.1-11,20.9-24.7,20.5-41.1l-0.3-0.9h-44.7
		c0,7.6-2.5,13.6-7.6,18.2c-5,4.5-11.8,6.8-20.3,6.8c-12.9,0-22-4.4-27.3-13.3c-5.3-8.9-8-20.5-8-34.9v-4.5c0-14.1,2.7-25.6,8-34.7
		c5.3-9,14.3-13.5,27-13.5c8.8,0,15.8,2.8,20.7,8.3c5,5.5,7.5,12.5,7.5,20.9h44.7l0.3-0.9C2408.2,664.4,2401.6,649.5,2388.1,638.1z"
		/>
	<path class="st9" d="M2532.7,621c-10.1,0-19.3,2.1-27.5,6.2c-8.3,4.1-15.3,9.9-21,17.3v-92.1h-49V786h49V667.4
		c3.5-4,8-7.1,13.5-9.2c5.5-2.1,12.1-3.2,19.6-3.2c9.1,0,15.9,2.6,20.4,7.9c4.5,5.2,6.8,14.1,6.8,26.7V786h49v-96.1
		c0-23.5-5.4-40.8-16.2-52C2566.5,626.6,2551.6,621,2532.7,621z"/>
	<path class="st9" d="M2771.5,644.1c-15.2-15.4-36.3-23.1-63.1-23.1c-26.8,0-47.7,7.7-62.8,23.1c-15.1,15.4-22.7,35.2-22.7,59.4v3.1
		c0,24.4,7.6,44.2,22.8,59.5c15.2,15.3,36.2,23,63.1,23c26.8,0,47.7-7.7,62.9-23c15.2-15.3,22.8-35.2,22.8-59.5v-3.1
		C2794.4,679.3,2786.7,659.5,2771.5,644.1z M2745.3,706.7c0,14.7-2.9,26.5-8.8,35.5c-5.9,9-15.1,13.5-27.8,13.5
		c-13,0-22.4-4.5-28.2-13.4c-5.8-8.9-8.7-20.8-8.7-35.6v-3.1c0-14.3,2.9-26,8.8-35.1c5.9-9.1,15.1-13.7,27.8-13.7
		c12.8,0,22.1,4.5,28,13.6c5.9,9.1,8.9,20.8,8.9,35.2V706.7z"/>
</g>
</svg>
