<?xml version="1.0" encoding="UTF-8"?>
<svg id="Layer_1" data-name="Layer 1" xmlns="http://www.w3.org/2000/svg" xmlns:xlink="http://www.w3.org/1999/xlink" viewBox="0 0 98.03 98.03">
  <defs>
    <style>
      .cls-1 {
        fill: url(#linear-gradient);
      }

      .cls-1, .cls-2, .cls-3 {
        stroke-width: 0px;
      }

      .cls-2 {
        fill: none;
      }

      .cls-3 {
        fill: url(#linear-gradient-2);
      }

      .cls-4 {
        clip-path: url(#clippath);
      }
    </style>
    <linearGradient id="linear-gradient" x1=".98" y1="49.02" x2="97.05" y2="49.02" gradientUnits="userSpaceOnUse">
      <stop offset="0" stop-color="#e98a00"/>
      <stop offset="1" stop-color="#d41d00"/>
    </linearGradient>
    <clipPath id="clippath">
      <path class="cls-2" d="M43.83,70.51c3.58.36,7.01-.13,10.34-1.37.31.9-.12,1.3-.76,1.53-2.67.95-5.44,1.37-8.27,1.33-.9-.01-1.63-.26-1.31-1.48ZM45.25,78.04c2.7-.35,5.4-.79,8.07-1.31.43-.08.74-.75,1.13-1.17-3.66.52-7.08,1-10.71,1.52-.15.95.82,1.05,1.51.96ZM43.83,74.65c-.21.77.03,1.2.8,1.25,3,.17,5.93-.2,8.76-1.26.59-.22,1.09-.64.82-1.44-3.37,1.26-6.84,1.62-10.37,1.45ZM43.59,72.93c.29.32.56.89.87.91,3.12.24,6.17-.16,9.08-1.3.37-.14.56-.72.84-1.1-3.56.98-6.96,1.55-10.49,1.22-.1.09-.2.18-.3.27ZM48.42,25.21c0,.23.47.64.69.62.31-.03.85-.37.85-.6.06-2.25.04-4.5.04-6.81h-1.61c0,2.35-.02,4.57.03,6.78ZM72.05,56.76c-1.45-.73-2.82-1.6-4.2-2.46-.94-.58-1.5-.42-1.75.83,2.08,1.21,4.2,2.45,6.31,3.67.78-.94.71-1.52-.35-2.05ZM64.39,58.31c-1.18.89-1.21,1.06-.21,1.87,1.62,1.32,3.27,2.59,4.97,3.93.32-.41.58-.74.94-1.18-1.99-1.61-3.85-3.12-5.69-4.62ZM39.61,28.76c.19-.47.68-1.1.53-1.39-.93-1.8-1.97-3.54-3.05-5.25-.14-.23-.79-.38-1.02-.24-.22.13-.41.77-.28,1,1.06,1.94,2.21,3.85,3.32,5.76.16.04.32.08.48.12ZM62.84,22.31c-.48-.3-.86-.53-1.3-.81-1.06,1.83-2.03,3.56-3.05,5.26-.69,1.15-.68,1.27.71,1.98,1.23-2.17,2.42-4.26,3.65-6.43ZM70.64,31.17c-1.67.92-3.31,1.89-4.96,2.84-.52.3-.82.74-.37,1.21.21.22.84.29,1.13.14,1.72-.91,3.4-1.9,5.08-2.88.21-.12.34-.36.43-.47-.03-.89-.62-1.23-1.32-.85ZM27.36,31.06c-.16-.09-.7.28-.89.56-.11.16.05.62.23.82.21.24.58.33.87.5,1.67.95,3.33,1.91,5.06,2.89.28-.5.48-.86.76-1.35-2.05-1.18-4.02-2.34-6.03-3.43ZM54.94,19.82c-.5,1.92-1.04,3.83-1.5,5.76-.06.25.25.75.49.84.24.09.85-.12.91-.32.64-2.16,1.21-4.34,1.82-6.61-.81-.21-1.45-.71-1.72.32ZM37.17,62.04c-.3-.04-.75.15-.94.39-1.12,1.45-2.18,2.94-3.26,4.42-.32.44-.76.87-.03,1.35.63.41.99.09,1.35-.41,1.04-1.45,2.1-2.88,3.15-4.33.16-.22.29-.46.5-.79-.27-.23-.5-.6-.77-.63ZM61.32,61.44c-.32.72-.83,1.4-.68,1.62,1.28,1.89,2.68,3.69,4.07,5.57.47-.35.81-.59,1.25-.92-1.53-2.07-2.96-4-4.64-6.27ZM62.48,30.08c-.41.4-.68.75-.18,1.26.56.59.95.21,1.36-.21,1.23-1.25,2.43-2.52,3.71-3.71.85-.79.79-1.33-.37-1.87-1.51,1.52-3,3.04-4.52,4.53ZM30.97,27.41c1.37,1.21,2.59,2.58,3.93,3.83.2.19.68.1,1.02.14.03-.4.21-.88.05-1.17-.26-.45-.77-.75-1.14-1.15-1.15-1.21-2.28-2.43-3.34-3.57-1.29.63-1.45,1.1-.52,1.92ZM26.15,56.83c-1.15.66-1.17.81-.14,1.91,2.06-1.2,4.13-2.41,6.27-3.65-.26-.5-.46-.86-.71-1.34-1.85,1.05-3.63,2.07-5.41,3.08ZM33.97,58.29c-1.92,1.53-3.79,3.03-5.74,4.6.35.43.64.77.99,1.21,1.96-1.59,3.85-3.12,5.88-4.77-.47-.42-.77-.7-1.14-1.04ZM25.26,38.91c1.7.42,3.39.85,5.1,1.21.24.05.73-.29.8-.53.07-.24-.2-.78-.43-.85-1.82-.54-3.66-1.03-5.51-1.48-1.19-.29-1.36-.11-1.4,1.24.48.14.95.29,1.44.41ZM43.53,26.49c1.55-.12,1.63-.25,1.15-1.54-.12-.33-.17-.68-.26-1.01-.42-1.6-.85-3.2-1.28-4.84-.58.14-.95.23-1.5.37.65,2.43,1.27,4.74,1.88,7.03ZM74.03,51.9c.26.06.81-.28.88-.54.07-.25-.25-.82-.51-.9-1.79-.54-3.61-.99-5.41-1.48-1.05-.29-1.46.14-1.36,1.29,2.12.55,4.25,1.13,6.39,1.62ZM29.02,49.05c-1.53.44-3.07.88-4.61,1.29-1.33.35-1.38.48-.51,1.73,2.21-.59,4.46-1.19,6.69-1.79.05-1.39-.25-1.6-1.57-1.22ZM73.46,38.81c.49-.13,1.17-.09,1.02-.95-.15-.86-.78-.76-1.35-.62-1.84.46-3.68.94-5.5,1.48-.23.07-.48.56-.46.83.02.26.38.5.58.74,2.03-.52,3.88-.98,5.71-1.47ZM75.25,43.88h-7.5c.08.51.14.92.21,1.34h7.39c-.04-.53-.07-.94-.1-1.34ZM23.6,45.18c2.29.09,4.59.05,6.98.05-.05-.57-.09-.97-.13-1.37h-7.76c.41.62.65,1.31.91,1.32ZM53.72,77.75c-2.92.44-5.85.89-8.87,1.35,2.78.65,5.5.7,8.19.03.41-.1.68-.75,1.02-1.14-.11-.08-.23-.16-.34-.23ZM43.76,69.59c1.09.11,2.19.21,3.28.32.01-.1.03-.21.04-.31-1.08-.18-2.15-.37-3.23-.55-.03.18-.06.36-.09.54ZM64.99,50.24c-.68,2.8-2.13,5.25-4.18,7.34-2.64,2.7-4.68,5.83-6.13,9.33-.38.92-.86,1.66-1.88,1.66-2.65-.01-5.29-.1-7.94-.24-.34-.02-.82-.46-.97-.82-1.66-3.97-4.07-7.42-7-10.57-4.08-4.39-4.72-9.7-3.66-15.35.39-2.09,1.12-4.09,2.51-5.71.68-.8,2.07-2.58,3.07-3.47,0-.01-.01-.02-.02-.03.08-.06.17-.11.25-.17,0,0,.02-.02.03-.02,0,0,0,0,0,0,5.1-3.46,10.38-4.64,16.16-2.2.92.39,1.84.82,2.69,1.35,0,0,0,0,0-.01,1.42.81,3.32,2.11,5.96,6.76,1.72,3.91,2.12,8.01,1.12,12.15ZM58.04,34.43c2.75,1.77,4.67,8.17,5.74,13.39,1.68-10.08-5.74-13.39-5.74-13.39Z"/>
    </clipPath>
    <linearGradient id="linear-gradient-2" y1="49.02" y2="49.02" xlink:href="#linear-gradient"/>
  </defs>
  <path class="cls-1" d="M49.02,9.48c21.8,0,39.53,17.73,39.53,39.53s-17.73,39.53-39.53,39.53S9.48,70.81,9.48,49.02,27.22,9.48,49.02,9.48M49.02.98C22.49.98.98,22.49.98,49.02s21.51,48.04,48.04,48.04,48.04-21.51,48.04-48.04S75.55.98,49.02.98h0Z"/>
  <g class="cls-4">
    <path class="cls-3" d="M49.02.98C22.49.98.98,22.49.98,49.02s21.51,48.04,48.04,48.04,48.04-21.51,48.04-48.04S75.55.98,49.02.98h0Z"/>
  </g>
</svg>