<?xml version="1.0" encoding="utf-8"?>
<!-- Generator: Adobe Illustrator 28.1.0, SVG Export Plug-In . SVG Version: 6.00 Build 0)  -->
<svg aria-hidden="true" version="1.1" id="Layer_1" xmlns="http://www.w3.org/2000/svg" xmlns:xlink="http://www.w3.org/1999/xlink" x="0px" y="0px"
	 viewBox="0 0 98 98" style="enable-background:new 0 0 98 98;" xml:space="preserve">
<style type="text/css">
	.st0{fill:url(#SVGID_1_);}
</style>
<linearGradient id="SVGID_1_" gradientUnits="userSpaceOnUse" x1="1" y1="51" x2="97.0003" y2="51" gradientTransform="matrix(1 0 0 -1 0 100)">
	<stop  offset="3.622897e-07" style="stop-color:#E98A00"/>
	<stop  offset="1" style="stop-color:#D41D00"/>
</linearGradient>
<path class="st0" d="M49,1C22.5,1,1,22.5,1,49s21.5,48,48,48s48-21.5,48-48C97.1,22.5,75.5,1,49,1z M49,88.5
	C27.2,88.5,9.5,70.8,9.5,49S27.2,9.5,49,9.5S88.5,27.2,88.5,49S70.8,88.5,49,88.5z M43.6,72.9c0.1-0.1,0.2-0.2,0.3-0.3
	c3.5,0.3,6.9-0.2,10.5-1.2c-0.3,0.4-0.5,1-0.8,1.1c-2.9,1.1-6,1.5-9.1,1.3C44.2,73.8,43.9,73.2,43.6,72.9z M54.2,73.2
	c0.3,0.8-0.2,1.2-0.8,1.4c-2.8,1.1-5.8,1.4-8.8,1.3c-0.8,0-1-0.5-0.8-1.2l0,0C47.4,74.8,50.8,74.5,54.2,73.2z M43.7,77.1
	c3.6-0.5,7-1,10.7-1.5c-0.4,0.4-0.7,1.1-1.1,1.2c-2.7,0.5-5.4,1-8.1,1.3C44.6,78.1,43.6,78,43.7,77.1z M53.7,77.8
	c0.1,0.1,0.2,0.2,0.3,0.2c-0.3,0.4-0.6,1-1,1.1c-2.7,0.7-5.4,0.6-8.2,0C47.9,78.6,50.8,78.2,53.7,77.8L53.7,77.8z M37.9,62.7
	c-0.2,0.3-0.3,0.6-0.5,0.8c-1,1.5-2.1,2.9-3.2,4.3c-0.4,0.5-0.7,0.8-1.3,0.4c-0.7-0.5-0.3-0.9,0-1.3c1.1-1.5,2.1-3,3.3-4.4
	c0.2-0.2,0.6-0.4,0.9-0.4C37.4,62.1,37.7,62.4,37.9,62.7z M35.1,59.3c-2,1.7-3.9,3.2-5.9,4.8c-0.4-0.4-0.6-0.8-1-1.2
	c1.9-1.6,3.8-3.1,5.7-4.6C34.3,58.6,34.6,58.9,35.1,59.3z M43.8,70.5L43.8,70.5c3.6,0.4,7-0.1,10.3-1.4c0.3,0.9-0.1,1.3-0.8,1.5
	c-2.6,1-5.3,1.4-8.2,1.4C44.2,72,43.5,71.7,43.8,70.5z M47,69.9c-1.1-0.1-2.2-0.2-3.3-0.3c0-0.2,0.1-0.4,0.1-0.5
	c1.1,0.2,2.2,0.4,3.2,0.5C47.1,69.7,47,69.8,47,69.9z M74.9,51.4c-0.1,0.3-0.6,0.6-0.9,0.5l0,0c-2.1-0.5-4.3-1.1-6.4-1.6
	c-0.1-1.1,0.3-1.6,1.4-1.3c1.8,0.5,3.6,0.9,5.4,1.5C74.7,50.5,75,51.1,74.9,51.4z M65,50.2L65,50.2c1-4.1,0.6-8.2-1.1-12.2
	c-2.6-4.6-4.5-6-6-6.8l0,0c-0.8-0.5-1.8-1-2.7-1.3c-5.8-2.4-11.1-1.3-16.2,2.2l0,0c-0.1,0.1-0.2,0.1-0.2,0.2l0,0
	c-1,0.9-2.4,2.7-3.1,3.5c-1.4,1.6-2.1,3.6-2.5,5.7c-1.1,5.7-0.4,11,3.7,15.4c2.9,3.1,5.3,6.6,7,10.6c0.1,0.4,0.6,0.8,1,0.8
	c2.7,0.1,5.3,0.2,7.9,0.2c1,0,1.5-0.7,1.9-1.7c1.5-3.5,3.5-6.6,6.1-9.3C62.9,55.5,64.3,53,65,50.2z M58,34.4c0,0,7.4,3.3,5.7,13.4
	C62.7,42.6,60.8,36.2,58,34.4z M72.4,58.8c-2.1-1.2-4.2-2.5-6.3-3.7c0.2-1.2,0.8-1.4,1.8-0.8c1.4,0.9,2.8,1.7,4.2,2.5l0,0
	C73.1,57.3,73.2,57.9,72.4,58.8z M75.2,43.9c0,0.4,0.1,0.8,0.1,1.3H68c-0.1-0.4-0.1-0.8-0.2-1.3H75.2z M64.4,58.3
	c1.8,1.5,3.7,3,5.7,4.6c-0.4,0.4-0.6,0.8-0.9,1.2c-1.7-1.3-3.4-2.6-5-3.9C63.2,59.4,63.2,59.2,64.4,58.3L64.4,58.3z M61.3,61.4
	c1.7,2.3,3.1,4.2,4.6,6.3c-0.4,0.3-0.8,0.6-1.2,0.9c-1.4-1.9-2.8-3.7-4.1-5.6C60.5,62.8,61,62.2,61.3,61.4z M67.6,38.7
	c1.8-0.5,3.7-1,5.5-1.5c0.6-0.1,1.2-0.2,1.3,0.6c0.2,0.9-0.5,0.8-1,1l0,0c-1.8,0.5-3.7,1-5.7,1.5c-0.2-0.2-0.6-0.5-0.6-0.7
	C67.2,39.3,67.4,38.8,67.6,38.7z M48.4,25.2c0-2.2,0-4.4,0-6.8H50c0,2.3,0,4.6,0,6.8c0,0.2-0.5,0.6-0.9,0.6
	C48.9,25.9,48.4,25.4,48.4,25.2L48.4,25.2z M43.5,26.5c-0.6-2.3-1.2-4.6-1.9-7c0.5-0.1,0.9-0.2,1.5-0.4c0.4,1.6,0.9,3.2,1.3,4.8
	c0.1,0.3,0.1,0.7,0.3,1C45.2,26.2,45.1,26.4,43.5,26.5L43.5,26.5z M53.4,25.6c0.5-1.9,1-3.8,1.5-5.8l0,0c0.3-1,0.9-0.5,1.7-0.3
	c-0.6,2.3-1.2,4.4-1.8,6.6c-0.1,0.2-0.7,0.4-0.9,0.3S53.4,25.8,53.4,25.6z M62.5,30.1c1.5-1.5,3-3,4.5-4.5c1.2,0.5,1.2,1.1,0.4,1.9
	c-1.3,1.2-2.5,2.5-3.7,3.7c-0.4,0.4-0.8,0.8-1.4,0.2C61.8,30.8,62.1,30.5,62.5,30.1z M70.6,31.2L70.6,31.2c0.7-0.4,1.3-0.1,1.3,0.8
	c-0.1,0.1-0.2,0.4-0.4,0.5c-1.7,1-3.4,2-5.1,2.9c-0.3,0.1-0.9,0.1-1.1-0.1c-0.5-0.5-0.1-0.9,0.4-1.2C67.3,33.1,69,32.1,70.6,31.2z
	 M35.8,22.9c-0.1-0.2,0.1-0.9,0.3-1s0.9,0,1,0.2c1.1,1.7,2.1,3.4,3,5.2c0.1,0.3-0.3,0.9-0.5,1.4l0,0c-0.2,0-0.3-0.1-0.5-0.1
	C38,26.7,36.8,24.8,35.8,22.9z M58.5,26.8c1-1.7,2-3.4,3-5.3c0.4,0.3,0.8,0.5,1.3,0.8l0,0c-1.2,2.2-2.4,4.3-3.6,6.4
	C57.8,28,57.8,27.9,58.5,26.8z M32.3,55.1c-2.1,1.2-4.2,2.5-6.3,3.7c-1-1.1-1-1.2,0.1-1.9l0,0c1.8-1,3.6-2,5.4-3.1
	C31.8,54.2,32,54.6,32.3,55.1z M30.6,50.3c-2.2,0.6-4.5,1.2-6.7,1.8c-0.9-1.2-0.8-1.4,0.5-1.7c1.5-0.4,3.1-0.8,4.6-1.3l0,0
	C30.3,48.7,30.6,48.9,30.6,50.3z M34,58.3L34,58.3L34,58.3L34,58.3z M31.5,25.5c1.1,1.1,2.2,2.4,3.3,3.6c0.4,0.4,0.9,0.7,1.1,1.1
	c0.2,0.3,0,0.8,0,1.2c-0.3,0-0.8,0.1-1-0.1c-1.3-1.2-2.6-2.6-3.9-3.8C30,26.6,30.2,26.1,31.5,25.5z M22.7,43.9h7.8
	c0,0.4,0.1,0.8,0.1,1.4c-2.4,0-4.7,0-7,0C23.3,45.2,23.1,44.5,22.7,43.9z M25.3,38.9c-0.5-0.1-1-0.3-1.4-0.4c0-1.4,0.2-1.5,1.4-1.2
	c1.9,0.5,3.7,0.9,5.5,1.5c0.2,0.1,0.5,0.6,0.4,0.8s-0.6,0.6-0.8,0.5C28.7,39.8,27,39.3,25.3,38.9z M26.7,32.4
	c-0.2-0.2-0.3-0.7-0.2-0.8c0.2-0.3,0.7-0.7,0.9-0.6l0,0c2,1.1,4,2.2,6,3.4c-0.3,0.5-0.5,0.8-0.8,1.3c-1.7-1-3.4-1.9-5.1-2.9
	C27.3,32.8,26.9,32.7,26.7,32.4z"/>
</svg>
