<?xml version="1.0" encoding="UTF-8"?>
<svg id="Layer_1" data-name="Layer 1" xmlns="http://www.w3.org/2000/svg" xmlns:xlink="http://www.w3.org/1999/xlink" viewBox="0 0 98.03 98.03">
  <defs>
    <style>
      .cls-1 {
        fill: url(#linear-gradient);
      }

      .cls-1, .cls-2 {
        stroke-width: 0px;
      }

      .cls-2 {
        fill: none;
      }

      .cls-3 {
        clip-path: url(#clippath);
      }
    </style>
    <clipPath id="clippath">
      <path class="cls-2" d="M31.08,36.12c8.66-5.13,27.76-5.1,36.01.31-2.56,1.37-4.92,2.79-7.37,3.89-1.21.54-2.59.51-3.89.73-1.98.33-3.96.78-5.95.93-1.3.1-2.62-.21-3.92-.42-2.25-.37-4.49-.85-6.75-1.18-2.23-.33-4.02-1.95-6-3.02-.65-.35-1.28-.74-2.12-1.23ZM62.04,34.98c.02-.14.04-.29.05-.43-2.04-.37-4.08-.75-6.11-1.12-.01.1-.02.19-.04.29,2.03.42,4.06.84,6.09,1.27ZM48.51,79.17c0-2.21,0-4.41.01-6.62.02-5.62.05-11.24.08-16.86,0-.54.1-1.03-.57-1.15-4.85-.88-9.7-1.81-14.54-2.71-.23-.04-.47.09-.71.15.06.21.09.44.19.62,3.78,6.87,7.56,13.72,11.34,20.59,1.33,2.41,2.65,4.82,4.14,7.52.03-.74.07-1.14.07-1.53ZM60.37,52.71c-3.42.6-6.84,1.27-10.26,1.83-.66.11-.88.27-.88,1.16,0,8.11-.03,16.23-.05,24.34,0,.12.07.25.14.45,5.36-9.49,10.66-18.88,16.11-28.54-1.84.28-3.46.49-5.06.77ZM60.58,41.53c-.15-.28-.63-.44-.93-.39-3.1.47-6.19,1-9.28,1.48-.73.11-1.11.46-1.11,1.49.02,2.95,0,5.9-.04,8.85,0,.67.17.89.7.8,2.96-.52,5.92-1.01,8.87-1.53,2.24-.39,4.48-.81,6.84-1.24-1.72-3.24-3.36-6.37-5.05-9.46ZM33.43,51.06c1.17.2,2.35.32,3.52.54,3.63.68,7.27,1.38,10.9,2.11.59.12.77-.11.78-.82.02-3.04.09-6.07.07-9.11,0-.36-.4-.93-.7-1.03-.76-.26-1.56-.3-2.34-.44-2.47-.43-4.94-.89-7.42-1.24-.34-.05-.84.34-1.07.72-.8,1.31-1.52,2.69-2.25,4.06-.82,1.54-1.62,3.09-2.53,4.83.49.18.76.33,1.05.38ZM65.94,50.17c.11.2.66.26.88.1,1.21-.92,2.38-1.92,3.55-2.91.98-.81,1.95-1.64,3.03-2.54-1.78-2.65-3.46-5.19-5.19-7.66-.16-.23-.74-.18-1.04,0-2.03,1.16-4.03,2.39-6.15,3.66,1.66,3.18,3.27,6.29,4.92,9.36ZM36.61,40.33c-1.97-1.22-3.92-2.45-5.92-3.6-.22-.13-.72.16-.94.45-.54.7-.96,1.55-1.5,2.27-1.2,1.62-2.44,3.2-3.75,4.91,2.42,2.11,4.73,4.11,7.13,6.2,1.78-3.29,3.55-6.54,5.33-9.82-.17-.2-.25-.34-.36-.41ZM43.08,72.31c-1.56-2.83-3.11-5.65-4.67-8.48-1.5-2.72-3.02-5.41-4.48-8.15-1.36-2.54-2.65-5.12-4.93-6.56-.87-.55-1.66-1.29-2.49-1.95l-.14.21c5.51,8.36,11.02,16.72,16.53,25.08.06-.05.12-.1.18-.15ZM58.05,67.71c4.47-6.58,8.94-13.17,13.41-19.75-.08-.11-.15-.22-.23-.33-1.33,1.1-2.67,2.17-3.98,3.3-.48.41-.97.89-1.3,1.47-2.11,3.69-4.19,7.42-6.27,11.14-.7,1.25-1.38,2.51-2.07,3.76.15.14.3.27.45.41ZM73.07,35.36c.33.46.59.81.89,1.22,1.58-1.83,3.09-3.58,4.73-5.48-.37-.41-.64-.7-.99-1.09-1.59,1.84-3.09,3.57-4.63,5.35ZM67.19,31.09c.44.26.78.46,1.2.72.93-2.38,1.83-4.67,2.74-7.01-.4-.25-.69-.44-1.15-.73-.94,2.37-1.84,4.64-2.79,7.03ZM24.09,36.14c.54-.58,1-1.09.41-1.8-1.33-1.59-2.7-3.13-4.06-4.69-.36.35-.67.64-1.04.99,1.68,1.98,3.18,3.73,4.69,5.51ZM83.29,43.4c-.04-.59-.07-1.06-.11-1.64-2.13.33-4.14.64-6.24.97.07.54.12.98.19,1.59,2.11-.31,4.09-.61,6.16-.91ZM18.56,55.21c.12-.13.3-.17.44-.28,1.34-1.01,2.67-2.02,4.04-3.06-.27-.52-.46-.89-.69-1.35-1.79,1.33-3.53,2.62-5.3,3.93.31,1.32.77,1.59,1.51.76ZM28.19,23.66c-.45.33-.78.57-1.14.83.93,2.43,1.81,4.72,2.7,7.05.42-.25.74-.44,1.19-.7-.94-2.45-1.83-4.78-2.75-7.18ZM20.19,43.75c.25.03.69-.35.79-.68.25-.78-.28-.87-.71-.94-1.47-.25-2.95-.43-4.41-.74-.9-.19-1.23.19-1.09,1.49,1.83.31,3.62.64,5.41.87ZM80.24,56.43c.26-.57.45-.98.66-1.45-1.83-1.39-3.57-2.71-5.37-4.07-.25.52-.42.89-.66,1.38,1.8,1.39,3.55,2.74,5.36,4.13ZM57.17,67.96c-.64,1.15-1.29,2.3-1.93,3.45.08.07.15.15.23.22.7-1.1,1.4-2.2,2.09-3.3-.13-.12-.26-.25-.39-.37ZM49.02,9.48c21.8,0,39.53,17.73,39.53,39.53s-17.73,39.53-39.53,39.53S9.48,70.81,9.48,49.02,27.22,9.48,49.02,9.48M49.02.98C22.49.98.98,22.49.98,49.02s21.51,48.04,48.04,48.04,48.04-21.51,48.04-48.04S75.55.98,49.02.98h0Z"/>
    </clipPath>
    <linearGradient id="linear-gradient" x1="24.99" y1="7.41" x2="73.04" y2="90.62" gradientUnits="userSpaceOnUse">
      <stop offset="0" stop-color="#9500ff"/>
      <stop offset="1" stop-color="red"/>
    </linearGradient>
  </defs>
  <g class="cls-3">
    <path class="cls-1" d="M49.02.98C22.49.98.98,22.49.98,49.02s21.51,48.04,48.04,48.04,48.04-21.51,48.04-48.04S75.55.98,49.02.98h0Z"/>
  </g>
</svg>