<?xml version="1.0" encoding="UTF-8"?>
<svg id="Layer_1" data-name="Layer 1" xmlns="http://www.w3.org/2000/svg" xmlns:xlink="http://www.w3.org/1999/xlink" viewBox="0 0 98.03 98.03">
  <defs>
    <style>
      .cls-1 {
        fill: url(#linear-gradient);
      }

      .cls-1, .cls-2 {
        stroke-width: 0px;
      }

      .cls-2 {
        fill: none;
      }

      .cls-3 {
        clip-path: url(#clippath);
      }
    </style>
    <clipPath id="clippath">
      <path class="cls-2" d="M64.65,28.16c-.7-.75-1.29-.83-2.12-.46-.74.33-1.48.64-2.23.95-.04-.08-.08-.16-.12-.25,1.01-.57,2.02-1.14,3.02-1.7-.01-.12-.02-.24-.04-.36-.48,0-1.05-.17-1.43.03-2.3,1.22-4.72,2.31-6.8,3.85-5.06,3.73-8.96,8.63-12.71,13.6-2.37,3.13-4.39,6.53-6.58,9.8-.44.66-.63,1.31-.04,1.93,1.9,1.96,3.83,3.88,5.73,5.83.85.87,1.66,1,2.62.16.5-.44,1.13-.73,1.68-1.11,3.38-2.32,6.85-4.51,10.1-7.01,2.56-1.97,4.83-4.33,7.25-6.49,3.53-3.14,6.17-6.88,7.89-11.29.32-.83.16-1.21-.46-1.78-1.99-1.84-3.96-3.71-5.81-5.69ZM57.05,45.8c-3.02-.09-5.4-2.41-5.49-5.47-.1-3.45,2.74-5.86,5.7-5.86,3.08,0,5.51,2.5,5.51,5.68.23,3.19-2.67,5.74-5.71,5.65ZM57.72,52.79c.57,4.51-7,17.19-11.81,19.69-.07-.56-.13-1.01-.19-1.45-.34-2.71-.65-5.42-1.02-8.13-.1-.7.09-1.11.66-1.5,3.85-2.69,7.69-5.41,11.53-8.12.25-.17.52-.31.82-.48ZM36.43,51.26c1.81-2.8,3.77-5.51,5.68-8.24.78-1.12,1.6-2.21,2.43-3.36-4.32-.77-19.26,8.37-19.4,11.75,2.84.35,5.71.56,8.51,1.12,1.45.29,2.05-.15,2.78-1.27ZM42.06,40.98c.04.09.08.18.12.27-2.39,1.04-4.78,2.07-7.17,3.11-.05-.07-.1-.15-.15-.22,2.12-1.68,4.51-2.74,7.2-3.16ZM69.91,24.17c1.14-.23,2.3-.33,3.64-.52-.17,3.57-.61,6.9-2.06,10.42-2.44-2.35-4.72-4.54-7-6.72.05-.15.1-.29.14-.44l5.27-1.68c-.03-.11-.06-.21-.08-.32-1.56.37-3.11.75-4.67,1.13-.27.07-.54.24-.8.24-.23,0-.46-.2-.69-.3.15-.17.28-.44.46-.49,1.92-.46,3.85-.92,5.79-1.31ZM31.54,64.63c-1.91,1.85-3.77,3.76-5.66,5.63-.84.83-.95.81-1.69-.24,2.74-2.7,5.48-5.41,8.32-8.21.27.25.56.5,1.24,1.12-.82.62-1.58,1.09-2.2,1.7ZM24.98,65.86c-1.8,1.88-3.54,3.71-5.38,5.64-.32-.34-.58-.62-.85-.92,1.84-1.79,3.63-3.53,5.52-5.36.24.21.53.46.72.63ZM29.1,69.97c1.75-1.75,3.49-3.51,5.32-5.34.3.26.63.54,1,.85-1.68,1.69-3.21,3.22-4.74,4.75-.84.84-.91.82-1.58-.26ZM25.32,62.75c-.37-.39-.63-.67-.96-1.01,1.8-1.82,3.56-3.59,5.39-5.44.37.35.67.62,1,.93-1.82,1.84-3.58,3.63-5.44,5.52ZM35.29,56.46c1.84,1.95,3.63,3.84,5.45,5.77-.35.28-.98.37-1.53-.18-1.39-1.39-2.74-2.83-4.1-4.26-.46-.48-.38-.94.17-1.33ZM38.88,65.85c.17.1.34.19.51.29-.12.47-.09,1.07-.38,1.37-1.38,1.42-2.84,2.76-4.35,4.2-.2-.19-.49-.47-.91-.87,1.74-1.7,3.44-3.35,5.14-5ZM32.65,71.51c.29.27.57.52.91.83-1.25,1.2-2.45,2.33-3.72,3.55-.22-.23-.49-.53-.78-.84,1.21-1.19,2.36-2.32,3.6-3.54ZM34.35,59.42c-.21-.22-.17-.67-.24-1.01.1,0,.19.02.29.03,1.38,1.32,2.76,2.64,4.11,3.99.15.14.12.47.17.7-.24-.03-.57.03-.71-.1-1.23-1.18-2.45-2.37-3.62-3.61ZM57.3,35.24c-2.86-.04-5.04,2.08-5.05,4.91-.01,2.7,2.07,4.92,4.67,4.96,2.92.05,5.18-2.05,5.24-4.88.06-2.74-2.08-4.95-4.86-4.98ZM57.12,43.81c-1.91-.02-3.56-1.7-3.57-3.65-.01-1.92,1.67-3.61,3.59-3.61,2.02,0,3.67,1.62,3.69,3.62.01,1.92-1.76,3.65-3.71,3.63ZM60.1,40.16c-.03,1.59-1.29,2.86-2.84,2.88-1.65.02-2.99-1.25-3.01-2.83-.01-1.57,1.34-2.94,2.91-2.95,1.59,0,2.96,1.35,2.93,2.9ZM49.02.98C22.49.98.98,22.49.98,49.02s21.51,48.04,48.04,48.04,48.04-21.51,48.04-48.04S75.55.98,49.02.98ZM49.02,88.55c-21.8,0-39.53-17.73-39.53-39.53S27.22,9.48,49.02,9.48s39.53,17.73,39.53,39.53-17.73,39.53-39.53,39.53Z"/>
    </clipPath>
    <linearGradient id="linear-gradient" x1="49.02" y1=".98" x2="49.02" y2="97.05" gradientUnits="userSpaceOnUse">
      <stop offset="0" stop-color="#0ce8df"/>
      <stop offset="1" stop-color="#0300d4"/>
    </linearGradient>
  </defs>
  <g class="cls-3">
    <path class="cls-1" d="M49.02.98C22.49.98.98,22.49.98,49.02s21.51,48.04,48.04,48.04,48.04-21.51,48.04-48.04S75.55.98,49.02.98h0Z"/>
  </g>
</svg>