<?xml version="1.0" encoding="utf-8"?>
<!-- Generator: Adobe Illustrator 28.1.0, SVG Export Plug-In . SVG Version: 6.00 Build 0)  -->
<svg version="1.1" id="Layer_1" xmlns="http://www.w3.org/2000/svg" xmlns:xlink="http://www.w3.org/1999/xlink" x="0px" y="0px"
	 viewBox="0 0 98 98" style="enable-background:new 0 0 98 98;" xml:space="preserve">
<style type="text/css">
	.st0{fill:url(#SVGID_1_);}
</style>
<linearGradient id="SVGID_1_" gradientUnits="userSpaceOnUse" x1="0.98" y1="49.02" x2="97.06" y2="49.02">
	<stop  offset="0" style="stop-color:#9500FF"/>
	<stop  offset="1" style="stop-color:#FF0000"/>
</linearGradient>
<path class="st0" d="M31.6,50.6c-2.4-2.1-4.7-4.1-7.1-6.2c1.3-1.7,2.5-3.3,3.8-4.9c0.5-0.7,1-1.6,1.5-2.3c0.2-0.3,0.7-0.6,0.9-0.5
	c2,1.1,4,2.4,5.9,3.6h0c0.1,0.1,0.2,0.2,0.4,0.4C35.2,44,33.4,47.3,31.6,50.6z M24.5,34.3c-1.3-1.6-2.7-3.1-4.1-4.7
	c-0.4,0.3-0.7,0.6-1,1c1.7,2,3.2,3.7,4.7,5.5v0C24.6,35.6,25.1,35.1,24.5,34.3z M97.1,49c0,26.5-21.5,48-48,48
	c-26.5,0-48-21.5-48-48C1,22.5,22.5,1,49,1C75.5,1,97.1,22.5,97.1,49z M88.5,49C88.5,27.2,70.8,9.5,49,9.5C27.2,9.5,9.5,27.2,9.5,49
	S27.2,88.5,49,88.5S88.5,70.8,88.5,49z M48,54.5c-4.9-0.9-9.7-1.8-14.5-2.7c-0.2,0-0.5,0.1-0.7,0.2c0.1,0.2,0.1,0.4,0.2,0.6
	c3.8,6.9,7.6,13.7,11.3,20.6c1.3,2.4,2.7,4.8,4.1,7.5c0-0.7,0.1-1.1,0.1-1.5l0,0c0-2.2,0-4.4,0-6.6c0-5.6,0-11.2,0.1-16.9
	C48.6,55.1,48.7,54.7,48,54.5z M33.9,55.7c-1.4-2.5-2.6-5.1-4.9-6.6c-0.9-0.6-1.7-1.3-2.5-2l-0.1,0.2c5.5,8.4,11,16.7,16.5,25.1
	c0.1,0,0.1-0.1,0.2-0.2c-1.6-2.8-3.1-5.6-4.7-8.5C36.9,61.1,35.4,58.4,33.9,55.7z M17,54.4c0.3,1.3,0.8,1.6,1.5,0.8
	c0.1-0.1,0.3-0.2,0.4-0.3c1.3-1,2.7-2,4-3.1c-0.3-0.5-0.5-0.9-0.7-1.4C20.6,51.9,18.8,53.1,17,54.4z M67.2,31.1L67.2,31.1
	C67.2,31.1,67.2,31.1,67.2,31.1C67.2,31.1,67.2,31.1,67.2,31.1z M71.1,24.8c-0.4-0.2-0.7-0.4-1.2-0.7c-0.9,2.4-1.8,4.6-2.8,7
	c0.4,0.3,0.8,0.5,1.2,0.7C69.3,29.4,70.2,27.1,71.1,24.8z M20.2,43.7c0.2,0,0.7-0.3,0.8-0.7c0.2-0.8-0.3-0.9-0.7-0.9
	c-1.5-0.2-3-0.4-4.4-0.7c-0.9-0.2-1.2,0.2-1.1,1.5C16.6,43.2,18.4,43.5,20.2,43.7L20.2,43.7z M30.9,30.8c-0.9-2.5-1.8-4.8-2.8-7.2
	c-0.5,0.3-0.8,0.6-1.1,0.8c0.9,2.4,1.8,4.7,2.7,7C30.2,31.3,30.5,31.1,30.9,30.8z M77.1,44.3c2.1-0.3,4.1-0.6,6.2-0.9l0,0
	c0-0.6-0.1-1.1-0.1-1.6c-2.1,0.3-4.1,0.6-6.2,1C77,43.3,77.1,43.7,77.1,44.3z M67.2,37.2c-2,1.2-4,2.4-6.1,3.7
	c1.7,3.2,3.3,6.3,4.9,9.4v0c0.1,0.2,0.7,0.3,0.9,0.1c1.2-0.9,2.4-1.9,3.5-2.9c1-0.8,2-1.6,3-2.5c-1.8-2.6-3.5-5.2-5.2-7.7
	C68,36.9,67.5,37,67.2,37.2z M77.7,30c-1.6,1.8-3.1,3.6-4.6,5.4c0.3,0.5,0.6,0.8,0.9,1.2c1.6-1.8,3.1-3.6,4.7-5.5
	C78.3,30.7,78,30.4,77.7,30z M48,42.8c-0.8-0.3-1.6-0.3-2.3-0.4c-2.5-0.4-4.9-0.9-7.4-1.2c-0.3,0-0.8,0.3-1.1,0.7
	c-0.8,1.3-1.5,2.7-2.2,4.1c-0.8,1.5-1.6,3.1-2.5,4.8c0.5,0.2,0.8,0.3,1,0.4h0c1.2,0.2,2.4,0.3,3.5,0.5c3.6,0.7,7.3,1.4,10.9,2.1
	c0.6,0.1,0.8-0.1,0.8-0.8c0-3,0.1-6.1,0.1-9.1C48.7,43.4,48.3,42.9,48,42.8z M74.9,52.3c1.8,1.4,3.5,2.7,5.4,4.1l0,0
	c0.3-0.6,0.5-1,0.7-1.5c-1.8-1.4-3.6-2.7-5.4-4.1C75.3,51.4,75.1,51.8,74.9,52.3z M71.2,47.6c-1.3,1.1-2.7,2.2-4,3.3
	c-0.5,0.4-1,0.9-1.3,1.5c-2.1,3.7-4.2,7.4-6.3,11.1c-0.5,1-1.1,2-1.6,2.9c0,0,0,0,0,0c-0.6,1.2-2.2,3.8-2.8,4.9
	c0.1,0.1,0.2,0.1,0.2,0.2c0.6-0.9,1.8-2.7,2.6-3.9c0,0,0,0,0,0C62.5,61.1,67,54.5,71.5,48C71.4,47.9,71.3,47.7,71.2,47.6z
	 M58.1,67.7C58.1,67.7,58.1,67.7,58.1,67.7C58.1,67.7,58.1,67.7,58.1,67.7L58.1,67.7z M49.9,53.8c3-0.5,5.9-1,8.9-1.5
	c2.2-0.4,4.5-0.8,6.8-1.2c-1.7-3.2-3.4-6.4-5-9.5c-0.2-0.3-0.6-0.4-0.9-0.4c-3.1,0.5-6.2,1-9.3,1.5c-0.7,0.1-1.1,0.5-1.1,1.5
	c0,3,0,5.9,0,8.8C49.2,53.6,49.4,53.9,49.9,53.8z M49.9,42c-1.3,0.1-2.6-0.2-3.9-0.4c-2.2-0.4-4.5-0.9-6.8-1.2c-2.2-0.3-4-1.9-6-3
	c-0.7-0.4-1.3-0.7-2.1-1.2l0,0c8.7-5.1,27.8-5.1,36,0.3c-2.6,1.4-4.9,2.8-7.4,3.9c-1.2,0.5-2.6,0.5-3.9,0.7
	C53.8,41.4,51.9,41.8,49.9,42z M60.4,52.7L60.4,52.7c-3.4,0.6-6.8,1.3-10.3,1.8c-0.7,0.1-0.9,0.3-0.9,1.2c0,8.1,0,16.2,0,24.3
	c0,0.1,0.1,0.2,0.1,0.5C54.7,71,60,61.6,65.4,51.9C63.6,52.2,62,52.4,60.4,52.7z"/>
</svg>
